<svg width="233.000000" height="25.000000" viewBox="0 0 233 25" fill="none" xmlns="http://www.w3.org/2000/svg" xmlns:xlink="http://www.w3.org/1999/xlink">
	<desc>
			Created with Pixso.
	</desc>
	<defs>
		<clipPath id="clip1028_3221">
			<rect id="star (1) 4" width="24.000000" height="24.000000" transform="translate(0.000000 1.000000)" fill="white" fill-opacity="0"/>
		</clipPath>
		<clipPath id="clip1028_3310">
			<rect id="headphone-line" width="24.000000" height="24.000000" transform="translate(169.000000 1.000000)" fill="white" fill-opacity="0"/>
		</clipPath>
		<clipPath id="clip1028_3311">
			<rect id="book-mark-line" width="24.000000" height="24.000000" transform="translate(209.000000 1.000000)" fill="white" fill-opacity="0"/>
		</clipPath>
	</defs>
	<rect id="star (1) 4" width="24.000000" height="24.000000" transform="translate(0.000000 1.000000)" fill="#FFFFFF" fill-opacity="0"/>
	<g clip-path="url(#clip1028_3221)">
		<path id="Vector" d="M21.39 12.6001C21.6647 12.3193 21.856 11.9675 21.9425 11.5845C22.0291 11.2012 22.0074 10.8015 21.88 10.4299C21.7604 10.0574 21.5387 9.72559 21.2399 9.4729C20.9411 9.21997 20.5773 9.05615 20.19 9L15.9 8.34009C15.88 8.33423 15.8615 8.32397 15.8459 8.3103C15.8304 8.29639 15.8181 8.2793 15.81 8.26001L13.93 4.26001C13.7651 3.8855 13.4949 3.56689 13.1522 3.34326C12.8096 3.11938 12.4092 3.00024 12 3C11.5955 2.99829 11.1991 3.11353 10.8585 3.33179C10.5179 3.55005 10.2476 3.86182 10.08 4.22998L8.20001 8.22998C8.18976 8.24951 8.17554 8.2666 8.15833 8.28052C8.14111 8.29419 8.12128 8.3042 8.09998 8.31006L3.82001 9C3.43207 9.05786 3.06781 9.22217 2.7677 9.47461C2.46759 9.72705 2.24335 10.0579 2.12 10.4299C1.99731 10.803 1.979 11.2021 2.06714 11.5847C2.15533 11.9673 2.3465 12.3184 2.62 12.6001L5.77997 15.8501C5.78912 15.8704 5.79382 15.8926 5.79382 15.915C5.79382 15.9375 5.78912 15.9595 5.77997 15.98L5.03998 20.52C4.97119 20.9153 5.01605 21.3223 5.16931 21.6931C5.32257 22.064 5.578 22.3838 5.90582 22.6152C6.23364 22.8467 6.62048 22.9805 7.0213 23.0007C7.42212 23.021 7.82043 22.9272 8.16998 22.73L11.9 20.6599C11.9185 20.6504 11.9391 20.6453 11.96 20.6453C11.9809 20.6453 12.0015 20.6504 12.02 20.6599L15.75 22.73C16.1 22.9229 16.4973 23.0134 16.8963 22.9912C17.2953 22.969 17.6801 22.835 18.0066 22.6045C18.3331 22.374 18.5881 22.0564 18.7426 21.6877C18.897 21.3191 18.9446 20.9143 18.88 20.52L18.19 16C18.1794 15.9817 18.174 15.9612 18.174 15.9399C18.174 15.9189 18.1794 15.8982 18.19 15.8801L21.39 12.6001Z" fill="#FF7F4D" fill-opacity="1.000000" fill-rule="nonzero"/>
	</g>
	<path id="4.7" d="M43.9932 16.3369L42.4463 16.3369L42.4463 19L39.792 19L39.792 16.3369L34.3076 16.3369L34.3076 14.4473L39.9414 6.15039L42.4463 6.15039L42.4463 14.2275L43.9932 14.2275L43.9932 16.3369ZM39.792 14.2275L39.792 12.0479Q39.792 11.7402 39.8052 11.3184Q39.8184 10.8965 39.8359 10.4746Q39.8535 10.0527 39.8755 9.72314Q39.8975 9.39355 39.9062 9.26172L39.8359 9.26172Q39.6689 9.62207 39.4844 9.96045Q39.2998 10.2988 39.0537 10.668L36.6982 14.2275L39.792 14.2275ZM45.3203 17.7432Q45.3203 16.917 45.7729 16.583Q46.2256 16.249 46.8672 16.249Q47.4912 16.249 47.9438 16.583Q48.3965 16.917 48.3965 17.7432Q48.3965 18.5342 47.9438 18.8857Q47.4912 19.2373 46.8672 19.2373Q46.2256 19.2373 45.7729 18.8857Q45.3203 18.5342 45.3203 17.7432ZM51.4199 19L56.2451 8.43555L49.9082 8.43555L49.9082 6.15039L59.1279 6.15039L59.1279 7.85547L54.2676 19L51.4199 19Z" fill="#FF7F4D" fill-opacity="1.000000" fill-rule="evenodd"/>
	<rect id="headphone-line" width="24.000000" height="24.000000" transform="translate(169.000000 1.000000)" fill="#FFFFFF" fill-opacity="0"/>
	<g clip-path="url(#clip1028_3310)">
		<path id="Vector" d="M181 5C178.878 5 176.843 5.84277 175.343 7.34326C173.843 8.84351 173 10.8782 173 13L176 13C176.53 13 177.039 13.2107 177.414 13.5857C177.789 13.9609 178 14.4695 178 15L178 20C178 20.5305 177.789 21.0391 177.414 21.4143C177.039 21.7893 176.53 22 176 22L173 22C172.47 22 171.961 21.7893 171.586 21.4143C171.211 21.0391 171 20.5305 171 20L171 13C171 7.47705 175.477 3 181 3C186.523 3 191 7.47705 191 13L191 20C191 20.5305 190.789 21.0391 190.414 21.4143C190.039 21.7893 189.53 22 189 22L186 22C185.47 22 184.961 21.7893 184.586 21.4143C184.211 21.0391 184 20.5305 184 20L184 15C184 14.4695 184.211 13.9609 184.586 13.5857C184.961 13.2107 185.47 13 186 13L189 13C189 10.8782 188.157 8.84351 186.657 7.34326C185.157 5.84277 183.122 5 181 5ZM173 15L173 20L176 20L176 15L173 15ZM186 15L186 20L189 20L189 15L186 15Z" fill="#9A9A9A" fill-opacity="1.000000" fill-rule="nonzero"/>
	</g>
	<rect id="book-mark-line" width="24.000000" height="24.000000" transform="translate(209.000000 1.000000)" fill="#FFFFFF" fill-opacity="0"/>
	<g clip-path="url(#clip1028_3311)">
		<path id="Vector" d="M212 19.5L212 6C212 5.20435 212.316 4.44141 212.879 3.87866C213.441 3.31616 214.204 3 215 3L229 3C229.265 3 229.52 3.10547 229.707 3.29297C229.895 3.48047 230 3.73486 230 4L230 22C230 22.2651 229.895 22.5195 229.707 22.707C229.52 22.8945 229.265 23 229 23L215.5 23C214.572 23 213.682 22.6313 213.025 21.9749C212.369 21.3186 212 20.4282 212 19.5ZM228 21L228 18L215.5 18C215.102 18 214.721 18.158 214.439 18.4395C214.158 18.7207 214 19.1023 214 19.5C214 19.8977 214.158 20.2793 214.439 20.5605C214.721 20.842 215.102 21 215.5 21L228 21ZM219 5L215 5C214.735 5 214.48 5.10547 214.293 5.29297C214.105 5.48047 214 5.73486 214 6L214 16.3369C214.469 16.1145 214.981 15.9993 215.5 16L228 16L228 5L226 5L226 13L222.5 11L219 13L219 5Z" fill="#9A9A9A" fill-opacity="1.000000" fill-rule="nonzero"/>
	</g>
</svg>
