<svg width="196" height="32" viewBox="0 0 196 32" fill="none" xmlns="http://www.w3.org/2000/svg">
<circle cx="63.5" cy="15.5" r="4.5" fill="#3F51B5"/>
<circle cx="113.5" cy="15.5" r="4.5" fill="#EEF4FF"/>
<circle cx="88.5" cy="15.5" r="4.5" fill="#EEF4FF"/>
<circle cx="138.5" cy="15.5" r="4.5" fill="#EEF4FF"/>
<circle cx="180" cy="16" r="16" fill="#EEF4FF"/>
<path d="M183.167 16.4401L177.833 22.4401C177.717 22.5725 177.552 22.6532 177.376 22.6645C177.2 22.6757 177.026 22.6166 176.893 22.5001C176.761 22.3833 176.68 22.2187 176.669 22.0425C176.658 21.8663 176.717 21.6928 176.833 21.5601L181.773 16.0001L176.833 10.4401C176.726 10.3063 176.674 10.1361 176.688 9.96493C176.703 9.79378 176.783 9.6349 176.912 9.52142C177.041 9.40793 177.209 9.34861 177.381 9.35581C177.552 9.36301 177.714 9.43619 177.833 9.56008L183.167 15.5601C183.274 15.6817 183.333 15.8381 183.333 16.0001C183.333 16.162 183.274 16.3184 183.167 16.4401Z" fill="#3F51B5"/>
<circle cx="16" cy="16" r="16" fill="#EEF4FF"/>
<path d="M12.8335 16.4401L18.1668 22.4401C18.2836 22.5725 18.4482 22.6532 18.6244 22.6645C18.8006 22.6757 18.9741 22.6166 19.1068 22.5001C19.2393 22.3833 19.32 22.2187 19.3312 22.0425C19.3425 21.8663 19.2833 21.6928 19.1668 21.5601L14.2268 16.0001L19.1668 10.4401C19.2746 10.3063 19.3265 10.1361 19.3118 9.96493C19.2972 9.79378 19.217 9.6349 19.088 9.52142C18.9591 9.40793 18.7913 9.34861 18.6197 9.35581C18.448 9.36301 18.2858 9.43619 18.1668 9.56008L12.8335 15.5601C12.7266 15.6817 12.6677 15.8381 12.6677 16.0001C12.6677 16.162 12.7266 16.3184 12.8335 16.4401Z" fill="#3F51B5"/>
</svg>
