<svg width="173" height="34" viewBox="0 0 173 34" fill="none" xmlns="http://www.w3.org/2000/svg">
<path d="M21.3904 16.6C21.6651 16.3192 21.8564 15.9676 21.9429 15.5845C22.0294 15.2013 22.0078 14.8016 21.8804 14.43C21.7609 14.0573 21.5391 13.7257 21.2403 13.4729C20.9415 13.2201 20.5778 13.0562 20.1904 13L15.9004 12.34C15.8804 12.3342 15.862 12.324 15.8464 12.3102C15.8308 12.2963 15.8185 12.2792 15.8104 12.26L13.9304 8.26002C13.7656 7.88546 13.4953 7.56692 13.1527 7.34321C12.81 7.11949 12.4097 7.00025 12.0004 7.00002C11.5959 6.99835 11.1995 7.11353 10.8589 7.33173C10.5183 7.54993 10.248 7.86186 10.0804 8.23002L8.20042 12.23C8.19016 12.2495 8.17599 12.2667 8.15878 12.2805C8.14157 12.2942 8.1217 12.3043 8.10043 12.31L3.82042 13C3.43252 13.0578 3.06825 13.2221 2.76813 13.4745C2.468 13.727 2.24379 14.0577 2.12042 14.43C1.99772 14.8029 1.97945 15.2023 2.06759 15.5848C2.15573 15.9673 2.34692 16.3184 2.62042 16.6L5.78043 19.85C5.78952 19.8705 5.79422 19.8926 5.79422 19.915C5.79422 19.9374 5.78952 19.9596 5.78043 19.98L5.04042 24.52C4.97163 24.9154 5.01648 25.3222 5.16975 25.6931C5.32302 26.064 5.57842 26.3838 5.90626 26.6152C6.2341 26.8467 6.6209 26.9804 7.02171 27.0007C7.42252 27.021 7.82086 26.9272 8.17042 26.73L11.9004 24.66C11.919 24.6504 11.9395 24.6453 11.9604 24.6453C11.9813 24.6453 12.0019 24.6504 12.0204 24.66L15.7504 26.73C16.1005 26.9229 16.4977 27.0134 16.8967 26.9913C17.2958 26.9691 17.6805 26.835 18.007 26.6045C18.3335 26.374 18.5886 26.0563 18.743 25.6877C18.8974 25.319 18.9451 24.9144 18.8804 24.52L18.1904 20C18.1799 19.9818 18.1743 19.9611 18.1743 19.94C18.1743 19.919 18.1799 19.8983 18.1904 19.88L21.3904 16.6Z" fill="#FF754C"/>
<path d="M43.9932 20.3369H42.4463V23H39.792V20.3369H34.3076V18.4473L39.9414 10.1504H42.4463V18.2275H43.9932V20.3369ZM39.792 18.2275V16.0479C39.792 15.6846 39.8066 15.1572 39.8359 14.4658C39.8652 13.7744 39.8887 13.373 39.9062 13.2617H39.8359C39.6191 13.7422 39.3584 14.2109 39.0537 14.668L36.6982 18.2275H39.792ZM45.3115 21.7432C45.3115 21.251 45.4434 20.8789 45.707 20.627C45.9707 20.375 46.3545 20.249 46.8584 20.249C47.3447 20.249 47.7197 20.3779 47.9834 20.6357C48.2529 20.8936 48.3877 21.2627 48.3877 21.7432C48.3877 22.2061 48.2529 22.5723 47.9834 22.8418C47.7139 23.1055 47.3389 23.2373 46.8584 23.2373C46.3662 23.2373 45.9854 23.1084 45.7158 22.8506C45.4463 22.5869 45.3115 22.2178 45.3115 21.7432ZM51.4111 23L56.2363 12.4531H49.8994V10.168H59.1191V11.873L54.2588 23H51.4111Z" fill="#FF754C"/>
<path d="M74.3978 24V22.686L77.7098 19.212C78.2138 18.684 78.6458 18.216 79.0058 17.808C79.3658 17.4 79.6418 16.998 79.8338 16.602C80.0258 16.206 80.1218 15.78 80.1218 15.324C80.1218 14.568 79.9118 14.052 79.4918 13.776C79.0838 13.488 78.4598 13.344 77.6198 13.344C77.3078 13.344 76.9598 13.368 76.5758 13.416C76.2038 13.452 75.8378 13.5 75.4778 13.56C75.1298 13.608 74.8358 13.662 74.5958 13.722L74.4698 12.426C74.7338 12.354 75.0518 12.282 75.4238 12.21C75.7958 12.138 76.2038 12.078 76.6478 12.03C77.0918 11.97 77.5238 11.94 77.9438 11.94C79.2038 11.94 80.1518 12.198 80.7878 12.714C81.4358 13.218 81.7598 14.028 81.7598 15.144C81.7598 15.732 81.6638 16.266 81.4718 16.746C81.2918 17.214 81.0158 17.67 80.6438 18.114C80.2838 18.558 79.8158 19.056 79.2398 19.608L76.2338 22.632H82.0298V24H74.3978ZM89.6005 24V21.75H83.9305V20.526L87.2065 12.12H88.9525L85.5685 20.346H89.6005L89.6185 16.764H91.1845V20.346H92.6245V21.75H91.1845V24H89.6005ZM99.6552 24V21.75H93.9852V20.526L97.2612 12.12H99.0072L95.6232 20.346H99.6552L99.6732 16.764H101.239V20.346H102.679V21.75H101.239V24H99.6552ZM114.583 14.208C115.543 14.292 116.377 14.544 117.085 14.964C117.805 15.384 118.363 15.948 118.759 16.656C119.155 17.364 119.353 18.204 119.353 19.176C119.353 20.148 119.161 20.994 118.777 21.714C118.393 22.422 117.847 22.986 117.139 23.406C116.431 23.814 115.579 24.06 114.583 24.144V28.32H113.035V24.144C112.087 24.06 111.253 23.814 110.533 23.406C109.813 22.986 109.255 22.422 108.859 21.714C108.463 20.994 108.265 20.148 108.265 19.176C108.265 18.192 108.457 17.346 108.841 16.638C109.225 15.918 109.777 15.354 110.497 14.946C111.217 14.526 112.081 14.28 113.089 14.208V10.32H114.583V14.208ZM113.089 15.522C112.357 15.594 111.757 15.78 111.289 16.08C110.821 16.38 110.473 16.788 110.245 17.304C110.029 17.82 109.921 18.444 109.921 19.176C109.921 19.896 110.029 20.52 110.245 21.048C110.473 21.564 110.821 21.978 111.289 22.29C111.757 22.59 112.357 22.776 113.089 22.848V15.522ZM114.583 22.848C115.303 22.764 115.891 22.572 116.347 22.272C116.815 21.972 117.157 21.564 117.373 21.048C117.601 20.52 117.715 19.896 117.715 19.176C117.715 18.456 117.601 17.838 117.373 17.322C117.145 16.806 116.797 16.398 116.329 16.098C115.873 15.798 115.291 15.612 114.583 15.54V22.848ZM123.36 20.238C123.36 20.346 123.354 20.502 123.342 20.706C123.342 20.898 123.336 21.108 123.324 21.336C123.312 21.552 123.3 21.762 123.288 21.966C123.276 22.158 123.264 22.314 123.252 22.434L128.418 14.352H130.362V24H128.886V18.312C128.886 18.12 128.886 17.868 128.886 17.556C128.898 17.244 128.91 16.938 128.922 16.638C128.934 16.326 128.946 16.092 128.958 15.936L123.828 24H121.866V14.352H123.36V20.238ZM139.138 14.352H140.866L136.744 18.996L141.208 24H139.372L135.016 19.104V24H133.432V14.352H135.016V19.032L139.138 14.352ZM150.304 24H148.702V15.666H145.858C145.738 17.19 145.588 18.492 145.408 19.572C145.228 20.64 145 21.51 144.724 22.182C144.448 22.854 144.118 23.346 143.734 23.658C143.35 23.97 142.9 24.126 142.384 24.126C142.228 24.126 142.072 24.114 141.916 24.09C141.772 24.078 141.652 24.048 141.556 24V22.812C141.628 22.836 141.706 22.854 141.79 22.866C141.874 22.878 141.958 22.884 142.042 22.884C142.306 22.884 142.546 22.776 142.762 22.56C142.978 22.344 143.17 22.014 143.338 21.57C143.518 21.126 143.68 20.568 143.824 19.896C143.968 19.212 144.094 18.408 144.202 17.484C144.31 16.56 144.406 15.516 144.49 14.352H150.304V24ZM157.02 14.19C158.196 14.19 159.066 14.448 159.63 14.964C160.194 15.48 160.476 16.302 160.476 17.43V24H159.324L159.018 22.632H158.946C158.67 22.98 158.382 23.274 158.082 23.514C157.794 23.742 157.458 23.91 157.074 24.018C156.702 24.126 156.246 24.18 155.706 24.18C155.13 24.18 154.608 24.078 154.14 23.874C153.684 23.67 153.324 23.358 153.06 22.938C152.796 22.506 152.664 21.966 152.664 21.318C152.664 20.358 153.042 19.62 153.798 19.104C154.554 18.576 155.718 18.288 157.29 18.24L158.928 18.186V17.61C158.928 16.806 158.754 16.248 158.406 15.936C158.058 15.624 157.566 15.468 156.93 15.468C156.426 15.468 155.946 15.546 155.49 15.702C155.034 15.846 154.608 16.014 154.212 16.206L153.726 15.018C154.146 14.79 154.644 14.598 155.22 14.442C155.796 14.274 156.396 14.19 157.02 14.19ZM157.488 19.338C156.288 19.386 155.454 19.578 154.986 19.914C154.53 20.25 154.302 20.724 154.302 21.336C154.302 21.876 154.464 22.272 154.788 22.524C155.124 22.776 155.55 22.902 156.066 22.902C156.882 22.902 157.56 22.68 158.1 22.236C158.64 21.78 158.91 21.084 158.91 20.148V19.284L157.488 19.338ZM168.046 14.172C169.234 14.172 170.188 14.586 170.908 15.414C171.64 16.242 172.006 17.49 172.006 19.158C172.006 20.25 171.838 21.174 171.502 21.93C171.178 22.674 170.716 23.238 170.116 23.622C169.528 23.994 168.832 24.18 168.028 24.18C167.536 24.18 167.098 24.114 166.714 23.982C166.33 23.85 166 23.682 165.724 23.478C165.46 23.262 165.232 23.028 165.04 22.776H164.932C164.956 22.98 164.98 23.238 165.004 23.55C165.028 23.862 165.04 24.132 165.04 24.36V28.32H163.456V14.352H164.752L164.968 15.666H165.04C165.232 15.39 165.46 15.138 165.724 14.91C166 14.682 166.324 14.502 166.696 14.37C167.08 14.238 167.53 14.172 168.046 14.172ZM167.758 15.504C167.11 15.504 166.588 15.63 166.192 15.882C165.796 16.122 165.508 16.488 165.328 16.98C165.148 17.472 165.052 18.096 165.04 18.852V19.158C165.04 19.95 165.124 20.622 165.292 21.174C165.46 21.726 165.742 22.146 166.138 22.434C166.546 22.722 167.098 22.866 167.794 22.866C168.382 22.866 168.862 22.704 169.234 22.38C169.618 22.056 169.9 21.618 170.08 21.066C170.272 20.502 170.368 19.86 170.368 19.14C170.368 18.036 170.152 17.154 169.72 16.494C169.3 15.834 168.646 15.504 167.758 15.504Z" fill="#AAAAAA"/>
</svg>
